# xmcd
#
# Track frame offsets:
#	150
#	11182
#	27888
#	43809
#	59154
#	70465
#	87124
#	100464
#	114207
#	127840
#	139033
#	151883
#
# Disc length: 2184 seconds
#
# Revision: 0
# Processed by: cddbd v1.5.2PL0 Copyright (c) Steve Scherf et al.
# Submitted via: dBpowerAMP V4.0
#
DISCID=a108860c
DTITLE=CHAYITO VALDEZ - LAS CANCIONES DE MI CORAZON
DYEAR=2006
DGENRE=NORTEÑA
TTITLE0=BESOS CALLEJEROS
TTITLE1=NO HAY NOVEDAD
TTITLE2=DEJAME AMARTE OTRA VEZ
TTITLE3=NO DISCUTAMOS
TTITLE4=HABLANDO CLARO
TTITLE5=PUERTO DE ILUSION
TTITLE6=ESO SI NUNCA PODRAS
TTITLE7=AYUDAME DIOS MIO
TTITLE8=AHORA QUE TE VAS
TTITLE9=VERDAD QUE DUELE
TTITLE10=MIL NOCHES
TTITLE11=CHEQUE EN BLANCO
EXTD=CHAYITO VALDEZ UNA DE LAS MEJORES INTERPRETES EN LA \nDE LA MUSICA CAMPIRANA
EXTT0=
EXTT1=
EXTT2=
EXTT3=
EXTT4=
EXTT5=
EXTT6=
EXTT7=
EXTT8=
EXTT9=
EXTT10=
EXTT11=
PLAYORDER=
